<svg width="961" height="758" viewBox="0 0 961 758" fill="none" xmlns="http://www.w3.org/2000/svg">
<path d="M575.777 280.213C567.183 279.319 562.49 273.685 563.495 265.877C564.181 260.545 566.472 256.281 570.376 253.02C574.279 249.759 578.844 248.369 584.064 248.912C590.748 249.607 594.446 252.951 593.858 257.521C593.392 261.139 591.482 263.449 588.127 264.451C590.773 265.948 591.904 268.189 591.52 271.172C590.735 277.266 584.689 281.14 575.777 280.213ZM582.696 253.53C577.03 252.94 571.766 256.252 569.519 261.679C573.028 261.98 576.808 262.18 580.876 262.153C585.007 262.132 587.862 260.5 588.181 258.024C588.483 255.675 586.324 253.907 582.696 253.53ZM576.891 275.569C582.238 276.125 585.787 274.114 586.212 270.813C586.514 268.464 585.055 266.769 582.254 266.478C580.026 266.246 575.419 265.96 568.431 265.619L568.415 265.746C567.72 271.141 570.971 274.953 576.891 275.569ZM624.981 266.612C625.66 261.343 623.109 257.604 618.844 257.161C615.852 256.85 613.126 257.981 610.666 260.556C608.214 263.067 606.779 266.198 606.305 269.88C605.618 275.212 608.105 278.944 612.37 279.387C615.362 279.699 618.088 278.567 620.548 275.993C623.008 273.418 624.507 270.293 624.981 266.612ZM624.404 284.627L619.438 284.111C620.002 282.24 620.356 280.99 620.621 280.439C617.444 283.067 614.073 284.196 610.508 283.825C603.824 283.13 599.957 278.096 600.946 270.416C601.608 265.274 603.597 260.85 606.96 257.276C610.331 253.638 614.149 252.041 618.35 252.478C622.615 252.922 625.522 254.896 627.07 258.402L627.079 258.339L628.199 254.146L633.101 254.655L624.404 284.627ZM664.034 277.75L668.029 280.288C664.166 285.74 658.226 288.789 652.179 288.16C648.168 287.742 645.077 286.199 642.96 283.598C640.844 280.998 640.043 277.699 640.542 273.827C641.179 268.875 643.398 264.668 647.19 261.267C650.991 257.803 655.246 256.316 660.021 256.812C667.468 257.587 671.981 262.623 671.798 269.551L666.764 270.572C667.059 265.778 664.094 262.253 659.256 261.75C655.946 261.406 653.037 262.454 650.466 264.888C647.902 267.259 646.436 270.13 646.003 273.494C645.325 278.763 648.177 282.662 653.015 283.165C657.153 283.595 661.418 281.53 664.034 277.75ZM692.61 275.061L702.731 276.114L705.509 266.561L696.088 265.581C692.205 265.177 689.198 266.987 688.716 270.732C688.381 273.335 690 274.79 692.61 275.061ZM703.042 292.742L698.013 292.219L701.467 280.421L692.555 279.494L681.645 290.581L675.534 289.945L687.481 278.323C684.326 276.772 682.973 274.252 683.406 270.888C683.798 267.841 685.088 265.337 687.331 263.448C689.574 261.559 692.323 260.751 695.57 261.089L711.802 262.777L707.76 276.637L706.496 280.944L703.042 292.742ZM759.971 280.073L754.673 298.177L749.835 297.674L758.596 267.708L763.433 268.211L762.846 270.273C764.674 268.598 766.571 267.895 768.544 268.1C771.6 268.418 773.393 270.019 773.917 272.968C776.13 270.304 778.475 269.133 780.957 269.391C784.777 269.788 786.86 272.642 786.313 276.895C786.207 277.72 786.061 278.348 785.94 278.786L779.499 300.759L774.661 300.256L780.99 278.657C781.143 277.966 781.264 277.528 781.289 277.337C781.567 275.179 780.814 274.007 779.096 273.829C776.549 273.564 774.034 276.068 772.609 280.616L767.086 299.468L762.248 298.965L768.577 277.366C768.73 276.675 768.851 276.237 768.876 276.046C769.154 273.888 768.401 272.716 766.683 272.538C763.945 272.253 761.381 275.138 759.971 280.073ZM797.916 303.318C793.269 302.835 790.717 299.61 791.436 294.024C791.583 292.882 791.786 291.809 792.116 290.75L797.656 271.771L802.557 272.281L799.353 283.14C800.907 282.594 802.348 282.423 803.812 282.575C805.658 282.767 807.207 283.764 808.459 285.567C809.719 287.306 810.197 289.607 809.837 292.4C809.404 295.764 808.089 298.458 805.877 300.608C803.665 302.758 801.036 303.642 797.916 303.318ZM825.346 274.651L816.586 304.616L811.621 304.1L820.381 274.135L825.346 274.651ZM798.887 298.787C801.624 299.072 803.934 296.16 804.424 292.352C804.817 289.305 803.567 286.988 801.339 286.756C800.129 286.63 799.078 286.778 798.193 287.137L796.913 291.57C796.591 292.566 796.405 293.512 796.282 294.464C795.939 297.13 796.786 298.569 798.887 298.787ZM878.219 311.027L883.027 299.241L874.115 298.314L869.244 310.093L864.661 309.617L869.468 297.83L863.612 297.221L864.184 292.778L871.249 293.513L874.524 285.62L867.84 284.925L868.412 280.481L876.305 281.302L881.112 269.516L885.823 270.006L880.952 281.786L889.864 282.712L894.671 270.926L899.382 271.416L894.511 283.196L900.495 283.818L899.923 288.262L892.729 287.513L889.455 295.407L896.203 296.108L895.631 300.552L887.674 299.724L882.803 311.504L878.219 311.027ZM875.896 293.996L884.808 294.923L888.082 287.03L879.17 286.103L875.896 293.996ZM934.706 305.002C934.226 308.726 932.668 311.48 930.029 313.264C927.397 315.006 924.122 315.887 920.206 315.909L919.454 321.749L914.998 321.285L915.734 315.572C909.608 314.721 905.048 312.724 902.055 309.582L906.175 305.637C908.433 308.144 911.832 309.806 916.371 310.621L918.251 296.022L918.132 295.945C913.76 294.161 910.659 292.359 908.829 290.539C907.047 288.681 906.357 286.186 906.761 283.055C907.191 279.712 908.741 277.193 911.411 275.498C914.086 273.76 917.352 272.942 921.209 273.043L921.945 267.33L926.401 267.794L925.657 273.57C929.693 274.29 933.163 276.066 936.067 278.898L932.449 282.446C930.349 280.384 927.886 278.97 925.061 278.204L923.205 292.613C925.002 293.357 926.522 294.073 927.767 294.76C929.012 295.447 930.259 296.284 931.508 297.272C932.757 298.259 933.642 299.402 934.163 300.7C934.726 302.002 934.907 303.436 934.706 305.002ZM911.838 283.197C911.604 285.017 912.042 286.456 913.153 287.515C914.264 288.574 916.187 289.674 918.921 290.817L920.629 277.55C918.146 277.463 916.112 277.895 914.528 278.845C912.991 279.757 912.095 281.208 911.838 283.197ZM929.277 305.08C929.484 303.472 929.072 302.164 928.04 301.157C927.014 300.106 925.179 298.994 922.535 297.818L920.835 311.021C923.208 310.968 925.149 310.419 926.66 309.375C928.17 308.332 929.043 306.9 929.277 305.08ZM617.915 318.89C619.825 319.088 621.518 319.8 622.995 321.026C624.477 322.209 625.49 323.687 626.036 325.459L641.473 322.305L643.601 326.321L606.178 358.451L603.459 355.017L636.468 326.609L626.413 329.551C626.07 332.217 624.82 334.403 622.666 336.108C620.511 337.814 618.096 338.528 615.423 338.25C612.792 337.976 610.623 336.786 608.916 334.678C607.251 332.575 606.591 330.191 606.934 327.525C607.272 324.901 608.518 322.737 610.673 321.031C612.87 319.33 615.284 318.616 617.915 318.89ZM620.688 325.418C619.842 324.3 618.719 323.669 617.319 323.523C615.918 323.378 614.644 323.76 613.494 324.669C612.393 325.541 611.755 326.654 611.581 328.008C611.396 329.447 611.728 330.704 612.579 331.779C613.472 332.858 614.619 333.47 616.019 333.616C617.42 333.762 618.671 333.399 619.772 332.527C620.916 331.66 621.581 330.506 621.766 329.068C621.94 327.713 621.581 326.497 620.688 325.418ZM632.62 341.968C635.293 342.246 637.462 343.437 639.127 345.54C640.791 347.643 641.455 350.006 641.117 352.63C640.774 355.296 639.525 357.481 637.37 359.187C635.215 360.893 632.801 361.607 630.127 361.328C627.496 361.055 625.327 359.864 623.62 357.757C621.955 355.654 621.295 353.27 621.638 350.604C621.976 347.98 623.222 345.815 625.377 344.11C627.574 342.408 629.989 341.695 632.62 341.968ZM635.392 348.496C634.546 347.379 633.424 346.748 632.023 346.602C630.623 346.456 629.348 346.838 628.198 347.748C627.097 348.62 626.459 349.733 626.285 351.087C626.1 352.526 626.432 353.783 627.283 354.857C628.176 355.937 629.323 356.549 630.724 356.695C632.124 356.84 633.375 356.477 634.476 355.606C635.62 354.738 636.285 353.585 636.47 352.146C636.644 350.792 636.285 349.575 635.392 348.496ZM678.45 359.086C678.052 362.175 676.994 364.381 675.276 365.703C673.6 367.029 671.573 367.569 669.197 367.322C666.82 367.075 664.377 365.513 661.866 362.635C659.242 364.979 656.126 365.962 652.519 365.587C649.718 365.296 647.31 364.123 645.295 362.07C643.328 359.978 642.579 357.113 643.047 353.474C643.45 350.342 644.427 347.935 645.977 346.252C647.569 344.574 649.662 343.183 652.255 342.081C651.592 338.881 651.424 336.012 651.751 333.473C652.279 329.368 653.605 326.418 655.728 324.624C657.857 322.787 660.428 322.025 663.441 322.338C665.818 322.585 667.754 323.58 669.25 325.323C670.794 327.027 671.367 329.424 670.969 332.513C670.833 333.571 670.554 334.571 670.131 335.513C669.751 336.46 669.348 337.254 668.921 337.896C668.537 338.542 667.914 339.207 667.052 339.889C666.232 340.576 665.586 341.087 665.113 341.424C664.639 341.761 663.81 342.189 662.625 342.709C661.482 343.233 660.706 343.582 660.297 343.753C659.936 343.887 659.123 344.189 657.858 344.658C658.971 348.376 660.498 351.879 662.44 355.169C662.754 354.73 663.205 354.069 663.792 353.187C664.384 352.262 664.816 351.578 665.088 351.135C667.69 347.288 669.508 344.862 670.541 343.854C672.362 342.071 674.227 341.278 676.137 341.477C677.665 341.636 678.894 342.107 679.825 342.89L676.849 347.469C676.531 347.265 676.181 347.142 675.8 347.103C675.502 347.072 675.197 347.104 674.884 347.2C674.576 347.254 674.257 347.393 673.927 347.616C673.598 347.839 673.289 348.064 673.002 348.291C672.714 348.519 672.368 348.869 671.963 349.341C671.606 349.776 671.297 350.172 671.036 350.531C670.78 350.848 670.442 351.306 670.021 351.905C669.599 352.504 669.255 353.005 668.989 353.406C668.727 353.765 668.357 354.305 667.877 355.027C667.402 355.707 667.032 356.247 666.765 356.648C666.226 357.493 665.674 358.272 665.109 358.985C666.811 361.134 668.341 362.28 669.699 362.421C671.99 362.659 673.387 360.832 673.888 356.939L678.45 359.086ZM656.549 333.779C656.31 335.641 656.411 337.86 656.854 340.436C658.251 339.938 659.359 339.518 660.177 339.174C661.043 338.792 661.947 338.286 662.888 337.655C663.83 337.024 664.549 336.284 665.045 335.435C665.589 334.548 665.935 333.533 666.082 332.391C666.284 330.825 666.039 329.556 665.347 328.583C664.697 327.615 663.842 327.076 662.781 326.965C661.083 326.789 659.686 327.287 658.589 328.459C657.54 329.594 656.86 331.367 656.549 333.779ZM648.324 353.572C648.094 355.693 648.5 357.386 649.541 358.652C650.63 359.88 652.087 360.589 653.912 360.779C655.779 360.973 657.511 360.381 659.108 359.004C656.695 355.365 654.774 351.241 653.346 346.633C650.433 348.217 648.759 350.53 648.324 353.572ZM714.517 358.334L682.222 368.677L682.965 362.9L707.555 355.294L685.572 342.651L686.308 336.939L715.122 353.637L714.517 358.334ZM749.755 353.508L741.069 346.816L739.855 357.753L735.781 357.33L737.369 346.495L727.22 351.165L725.641 347.398L735.932 343.129L727.061 336.868L729.556 333.525L738.186 340.147L739.409 329.146L743.483 329.57L741.878 340.531L751.963 335.855L753.543 339.622L743.379 343.904L752.313 350.172L749.755 353.508ZM780.626 378.59C777.231 378.237 775.054 376.939 774.096 374.695C772.311 376.868 769.954 377.802 767.026 377.497C764.522 377.237 762.677 376.037 761.49 373.898C760.303 371.759 759.939 368.912 760.396 365.358C760.849 361.845 761.924 359.17 763.623 357.331C765.322 355.492 767.423 354.703 769.927 354.963C772.007 355.18 773.631 355.927 774.799 357.207L774.899 355.931L779.8 356.44L777.929 370.976C777.804 371.95 778.037 372.81 778.629 373.558C779.226 374.263 779.992 374.665 780.925 374.762C781.944 374.868 782.833 374.639 783.594 374.074C784.397 373.515 784.864 372.727 784.995 371.711L786.441 360.476C786.894 356.964 786.068 354.026 783.964 351.663C781.859 349.3 778.855 347.915 774.951 347.509C771.911 347.408 769.089 347.779 766.486 348.623L764.701 344.449C768.314 343.11 772.2 342.656 776.359 343.089C781.494 343.623 785.422 345.511 788.144 348.753C790.914 351.957 791.991 355.95 791.376 360.732L790.076 370.825C789.695 373.787 788.587 375.88 786.752 377.105C784.917 378.329 782.875 378.824 780.626 378.59ZM770.336 358.801C769.106 358.673 768.042 359.249 767.147 360.528C766.256 361.764 765.661 363.547 765.362 365.874C765.062 368.202 765.186 370.08 765.733 371.509C766.285 372.896 767.177 373.653 768.408 373.781C769.85 373.931 771.06 373.393 772.035 372.165C773.058 370.899 773.719 369.102 774.019 366.775C774.319 364.447 774.128 362.583 773.449 361.183C772.817 359.745 771.779 358.951 770.336 358.801ZM820.11 339.277L816.555 366.889L811.462 366.359L815.017 338.747L820.11 339.277ZM816.094 380.993C814.897 381.94 813.534 382.335 812.006 382.176C810.479 382.017 809.231 381.351 808.264 380.178C807.345 378.968 806.983 377.601 807.179 376.077C807.375 374.554 808.072 373.318 809.269 372.371C810.514 371.385 811.901 370.972 813.428 371.131C814.956 371.29 816.18 371.975 817.099 373.185C818.066 374.358 818.452 375.706 818.256 377.229C818.059 378.753 817.339 380.007 816.094 380.993ZM866.189 382.022L865.453 387.735L836.639 371.036L837.243 366.339L869.539 355.997L868.796 361.773L844.206 369.379L866.189 382.022Z" fill="#5D8880"/>
<path opacity="0.42" d="M54.3974 205.636L48.4815 207.295L36.5662 197.997L30.056 212.46L23.4623 214.309L32.4585 194.781L18.5123 183.935L24.2433 182.328L35.1511 190.784L41.1282 177.594L47.4138 175.832L39.2127 193.88L54.3974 205.636ZM79.8252 179.913C77.9143 174.956 73.7748 172.544 69.646 173.701C66.7497 174.513 64.7912 176.518 63.7706 179.716C62.727 182.854 62.9152 186.176 64.2505 189.639C66.1844 194.655 70.2623 197.085 74.3911 195.928C77.2874 195.116 79.2458 193.111 80.2664 189.913C81.287 186.716 81.1605 183.376 79.8252 179.913ZM87.9583 196.227L83.1517 197.574C82.7691 195.696 82.4936 194.45 82.4712 193.861C80.8188 197.368 78.2671 199.605 74.8162 200.573C68.3457 202.387 62.3744 199.297 59.5887 192.071C57.7239 187.234 57.422 182.555 58.7907 178.134C60.1364 173.655 62.8736 170.836 66.9408 169.696C71.0696 168.538 74.6877 169.244 77.7952 171.814L77.7722 171.754L76.7843 167.598L81.5294 166.267L87.9583 196.227ZM117.802 156.098L124.169 186.074L119.362 187.422L116.814 175.498C115.095 176.708 113.076 177.671 110.796 178.31C103.894 180.245 97.9902 178.923 95.6879 172.951C95.4347 172.294 95.197 171.501 95.021 170.69L93.3371 162.957L98.3902 161.54L99.959 168.974C100.151 169.649 100.25 170.084 100.365 170.382C101.724 173.906 104.941 174.989 109.932 173.589C112.274 172.933 114.254 172.047 115.873 170.931L112.995 157.445L117.802 156.098ZM151.797 191.562C146.805 192.962 142.617 192.548 139.232 190.321L141.316 186.163C143.871 187.829 146.935 188.161 150.447 187.176C156.486 185.483 158.526 180.147 156.605 171.091C155.138 174.546 152.648 176.766 149.135 177.751C143.404 179.358 138.002 177.035 135.907 171.601C135.653 170.944 135.462 170.27 135.309 169.518L131.643 152.217L136.573 150.835L140.086 167.385C140.185 167.82 140.331 168.375 140.63 169.151C142.034 172.794 145.074 174.125 148.525 173.158C150.62 172.57 152.277 171.378 153.535 169.503C154.793 167.629 155.173 165.603 154.69 163.29L151.301 146.705L156.169 145.341L161.312 169.838C163.998 182.649 159.87 189.299 151.797 191.562Z" fill="#282828"/>
<path opacity="0.42" d="M112.321 241.59C108.808 242.575 105.474 242.252 102.466 240.647C99.434 238.983 97.1967 236.368 95.8153 232.785C93.9965 228.067 93.933 223.652 95.5401 219.496C97.1241 215.28 100.054 212.606 104.182 211.448C108.126 210.342 112.114 211.474 114.751 214.242C113.308 210.676 110.57 208.003 106.622 206.264C102.736 204.509 98.2242 204.318 93.2326 205.717L92.7994 201.405C105.124 197.95 115.459 202.794 120.248 215.215C121.054 217.305 121.721 219.567 122.141 221.897C123.044 226.541 122.538 230.719 120.708 234.474C118.855 238.17 116.08 240.536 112.321 241.59ZM116.359 221.599C114.517 216.822 110.277 214.504 106.271 215.627C103.252 216.473 101.232 218.495 100.25 221.616C99.3294 224.719 99.4485 227.862 100.669 231.027C102.511 235.804 106.55 238.311 110.74 237.136C113.267 236.428 115.094 234.791 116.244 232.285C117.457 229.761 117.722 226.908 116.979 223.741C116.826 222.99 116.612 222.256 116.359 221.599ZM159.68 208.99C161.452 213.588 161.539 218.064 159.878 222.433C158.278 226.786 154.94 229.641 149.887 231.057C146.005 232.146 142.486 231.875 139.185 230.22C135.945 228.548 133.6 225.831 132.127 222.009C130.354 217.411 130.329 212.918 132.098 208.65C133.867 204.383 137.143 201.545 142.012 200.18C145.894 199.092 149.413 199.363 152.629 200.975C155.907 202.571 158.229 205.228 159.68 208.99ZM137.088 220.353C138.953 225.19 143.447 227.636 148.315 226.271C151.827 225.286 154.078 223.332 155.168 220.313C156.258 217.295 156.139 214.152 154.872 210.867C153.008 206.03 148.514 203.585 143.769 204.915C140.256 205.9 137.967 207.931 136.877 210.95C135.787 213.968 135.822 217.069 137.088 220.353ZM171.217 194.705L173.658 205.997C176.015 217.777 174.963 221.248 170.129 225.713L167.062 221.478C170.347 218.307 171.019 216.332 169.237 207.105L166.436 193.994L175.002 191.593L183.381 207.837L184.985 188.794L193.735 186.34L200.103 216.317L195.727 217.544L189.896 190.196L187.706 210.198L180.496 212.219L171.217 194.705ZM233.58 188.271C235.353 192.869 235.439 197.344 233.778 201.714C232.179 206.067 228.841 208.921 223.788 210.338C219.905 211.427 216.387 211.156 213.085 209.501C209.846 207.828 207.501 205.111 206.027 201.289C204.255 196.691 204.23 192.199 205.999 187.931C207.768 183.663 211.044 180.826 215.912 179.461C219.794 178.372 223.313 178.643 226.53 180.256C229.808 181.851 232.13 184.509 233.58 188.271ZM210.988 199.634C212.853 204.471 217.347 206.916 222.215 205.552C225.728 204.567 227.979 202.612 229.068 199.594C230.158 196.575 230.039 193.432 228.773 190.148C226.908 185.311 222.414 182.865 217.669 184.196C214.157 185.181 211.867 187.212 210.777 190.231C209.688 193.249 209.722 196.349 210.988 199.634ZM253.664 156.304L257.732 155.164C258.191 157.417 257.857 159.562 256.707 161.539C255.619 163.498 253.985 164.75 251.951 165.32C247.514 166.564 243.736 164.381 241.894 159.604L245.961 158.464C246.859 160.793 248.521 161.915 250.678 161.31C252.835 160.705 254.185 158.54 253.664 156.304ZM271.908 196.185L266.978 197.567C266.656 196.202 266.465 194.998 266.367 194.033C264.976 197.334 262.525 199.478 259.012 200.462C253.281 202.069 247.879 199.746 245.784 194.312C245.53 193.655 245.339 192.981 245.186 192.23L241.138 173.05L246.067 171.668L249.963 190.096C250.062 190.532 250.208 191.086 250.507 191.863C251.912 195.505 254.951 196.837 258.402 195.869C260.497 195.282 262.155 194.089 263.412 192.215C264.67 190.34 265.05 188.315 264.568 186.002L260.672 167.573L265.541 166.208L271.908 196.185Z" fill="#282828"/>
<path d="M75.9639 131.969C77.7366 136.568 77.8232 141.043 76.1619 145.413C74.5623 149.765 71.2244 152.62 66.1713 154.037C62.289 155.125 58.7703 154.855 55.4691 153.199C52.2296 151.527 49.8846 148.81 48.4111 144.988C46.6384 140.39 46.6135 135.897 48.3824 131.63C50.1513 127.362 53.4276 124.524 58.2959 123.16C62.1782 122.071 65.6968 122.342 68.9133 123.954C72.1915 125.55 74.5135 128.207 75.9639 131.969ZM53.3722 143.332C55.237 148.169 59.7307 150.615 64.599 149.25C68.1115 148.265 70.3625 146.311 71.4522 143.292C72.5419 140.274 72.4228 137.131 71.1565 133.847C69.2917 129.01 64.798 126.564 60.053 127.894C56.5404 128.879 54.2508 130.911 53.1612 133.929C52.0715 136.948 52.106 140.048 53.3722 143.332Z" fill="#AA3737"/>
<path d="M68.751 156.968C66.5754 170.09 65.2239 183.284 63.941 196.489C63.6335 199.654 63.1844 202.895 63.1011 206.081" stroke="#AA3737" stroke-width="4" stroke-linecap="round"/>
<path d="M321.19 335.014C291.767 342.78 261.643 360.114 247.094 383.182C216.194 432.174 265.952 474.928 318.938 493.862C387.437 518.339 449.882 493.389 447.61 432.022C444.784 355.717 355.281 325.081 273.389 330.218" stroke="#5D8880" stroke-width="5" stroke-linecap="round"/>
<path d="M345.004 532.932C333.666 582.674 319.416 631.789 310.37 681.902" stroke="#5D8880" stroke-width="5" stroke-linecap="round"/>
<path d="M302.402 681.103C275.424 691.713 258.387 713.217 239.724 731.153" stroke="#5D8880" stroke-width="5" stroke-linecap="round"/>
<path d="M309.967 685.177C313.896 710.968 340.392 732.827 358.01 752.964" stroke="#5D8880" stroke-width="5" stroke-linecap="round"/>
<path d="M338.176 555.445C351.18 579.229 371.084 600.381 386.219 623.233" stroke="#5D8880" stroke-width="5" stroke-linecap="round"/>
<path d="M328.18 571.012C291.609 582.624 258.404 609.935 224.447 626.884" stroke="#5D8880" stroke-width="5" stroke-linecap="round"/>
<path d="M291.228 394.035C297.672 394.681 298.582 390.981 291.693 390.29" stroke="#5D8880" stroke-width="5" stroke-linecap="round"/>
<path d="M377.59 404.597C382.3 408.148 384.5 401.498 376.916 400.737" stroke="#5D8880" stroke-width="5" stroke-linecap="round"/>
<path d="M307.618 447.817C317.654 453.891 325.534 457.502 338.421 455.753C346.51 454.655 353.666 451.724 360.613 448.395" stroke="#5D8880" stroke-width="5" stroke-linecap="round"/>
</svg>
